<svg width="800" height="600" xmlns="http://www.w3.org/2000/svg">
 <!-- Created with Method Draw - http://github.com/duopixel/Method-Draw/ -->
 <g>
  <title>background</title>
  <rect fill="#666666" id="canvas_background" height="602" width="802" y="-1" x="-1"/>
  <g display="none" overflow="visible" y="0" x="0" height="100%" width="100%" id="canvasGrid">
   <rect fill="url(#gridpattern)" stroke-width="0" y="0" x="0" height="100%" width="100%"/>
  </g>
 </g>
 <g>
  <title>Layer 1</title>
  <path transform="rotate(30.37364959716797 166.68035888671872,210.26278686523443) " id="svg_1" d="m145.05958,211.71704c1.5904,-1.47143 2.07975,-2.41314 2.07975,-2.41314l0.12234,0c0,0 -0.06117,1.29485 -0.06117,2.58971l0,26.82408l-9.5373,0l0,5.0568l24.82451,0l0,-5.0568l-9.41496,0l0,-36.47173l-5.37779,0l-10.3325,9.64764l3.66506,3.64913l4.03207,-3.82571zm22.4542,28.88408c0,1.00547 0.12234,2.06 0.30585,3.17337l27.81671,0l0,-5.0568l-21.39394,0c0.11724,-9.47107 20.72108,-11.58502 20.72108,-25.23985c0,-7.17565 -5.67854,-11.94797 -13.63054,-11.94797c-9.72081,0 -13.63564,7.88193 -13.63564,7.88193l4.46026,2.87909c0,0 3.05846,-5.29713 8.7472,-5.29713c4.52143,0 7.7583,2.76137 7.7583,6.88137c0,9.78988 -21.14926,11.90873 -21.14926,26.72599zm-21.22062,-86.33832l-10.19487,0l0,16.35734l10.19487,0l0,-16.35734zm56.07179,5.71894l0,15.54806l-20.38974,0l0,-15.54806l-30.58461,0l0,15.53825l-20.37955,0l0,-15.53825l-12.3307,0l0,106.28104l96.00001,0l0,-106.28104l-12.3154,0zm7.22307,101.37138l-85.80513,0l0,-73.15926l85.80513,0l0,73.15926zm-12.3205,-107.09032l-10.19487,0l0,16.35734l10.19487,0l0,-16.35734z" stroke-width="1.5" stroke="#999999" fill="#4c4c4c"/>
  <path stroke="#999999" id="svg_2" d="m239.63278,292.76463c-4.7572,-3.86807 -11.38005,-2.62687 -14.79023,2.77909l-26.74612,42.41503c-2.43465,3.85768 -1.65373,9.23202 1.74725,11.9979c3.40097,2.76072 8.12808,1.87366 10.56273,-1.9891l18.88487,-29.94487l-2.46177,-2.00491l-18.88199,29.94745l0,0c-1.46251,2.31198 -4.30029,2.84728 -6.33524,1.1941c-2.03776,-1.65593 -2.50449,-4.88101 -1.04487,-7.19825l0,0l26.74266,-42.41246l0.00344,-0.00269l-0.00575,-0.00257c2.43177,-3.84971 7.17389,-4.7393 10.5656,-1.98128c3.39173,2.76064 4.17616,8.14821 1.74783,12.00048l0,-0.00256l-29.31475,46.48782l0.00288,0.00528c-3.4038,5.39541 -10.04171,6.6419 -14.79311,2.77908c-4.75135,-3.87076 -5.84478,-11.40226 -2.44386,-16.80295l21.3045,-33.78402l-2.46234,-2.00221l-21.30387,33.78402c-4.38234,6.94898 -2.97412,16.61385 3.14623,21.58938c6.12033,4.98078 14.62963,3.38002 19.01197,-3.56626l29.31409,-46.49054c3.40101,-5.40325 2.31047,-12.92164 -2.45014,-16.79496l0,0z" stroke-width="1.5" fill="#4c4c4c"/>
  <path id="svg_3" d="m300.54976,156.22244l-5.87368,-4.14088c-1.48195,-1.04373 -3.43467,-0.54138 -4.36846,1.12119l-2.31515,4.13315l11.23661,7.916l2.31698,-4.13124c0.93024,-1.66455 0.48627,-3.85682 -0.99629,-4.89823l0,0zm-32.55287,36.82204l11.23722,7.91592l18.3148,-32.70247l-11.24257,-7.91799l-18.30946,32.70454l0,0zm-1.71648,10.05747l-0.24819,7.43529l5.86467,-3.47938l5.44995,-3.22761l-10.8409,-7.64157l-0.22553,6.91327l0,0l0,0z" stroke-width="1.5" stroke="#999999" fill="#4c4c4c"/>
  <path stroke="#999999" id="svg_7" d="m278.73994,428.10825c-3.56791,-2.73988 -8.53504,-1.8607 -11.09268,1.96852l-20.05959,30.04398c-1.82599,2.73252 -1.24029,6.53936 1.31044,8.49852c2.55073,1.95551 6.09607,1.32718 7.92206,-1.40895l14.16365,-21.21095l-1.84633,-1.42014l-14.1615,21.21277l0,0c-1.09688,1.63765 -3.22521,2.01682 -4.75142,0.84583c-1.52833,-1.17295 -1.87837,-3.45738 -0.78366,-5.09876l0,0l20.057,-30.04216l0.00259,-0.00191l-0.00432,-0.00183c1.82383,-2.72688 5.38042,-3.357 7.92421,-1.40341c2.5438,1.95545 3.13212,5.77165 1.31087,8.50034l0,-0.00181l-21.98607,32.92888l0.00216,0.00374c-2.55285,3.82174 -7.53128,4.70467 -11.09483,1.96852c-3.56351,-2.74179 -4.38359,-8.0766 -1.83289,-11.90208l15.97837,-23.93035l-1.84676,-1.41823l-15.9779,23.93035c-3.28676,4.9222 -2.23059,11.76815 2.35968,15.29248c4.59024,3.52805 10.97222,2.39419 14.25897,-2.5261l21.98557,-32.93081c2.55076,-3.8273 1.73285,-9.15282 -1.83761,-11.89643l0,0.00001z" stroke-width="1.5" fill="#4c4c4c"/>
  <path stroke="#999999" transform="rotate(30.186473846435547 635.6803588867189,129.26278686523423) " id="svg_8" d="m622.84883,130.12244c0.94387,-0.86981 1.23429,-1.42649 1.23429,-1.42649l0.07261,0c0,0 -0.0363,0.76544 -0.0363,1.53087l0,15.85666l-5.66021,0l0,2.98925l14.73288,0l0,-2.98925l-5.5876,0l0,-21.55972l-3.19162,0l-6.13214,5.70306l2.17514,2.15713l2.39296,-2.26151zm13.32614,17.07439c0,0.59437 0.07261,1.21773 0.18152,1.87589l16.50869,0l0,-2.98925l-12.6969,0c0.06958,-5.59868 12.29757,-6.84831 12.29757,-14.92016c0,-4.24178 -3.37011,-7.06286 -8.08947,-7.06286c-5.76912,0 -8.09249,4.65929 -8.09249,4.65929l2.64708,1.70193c0,0 1.81514,-3.13132 5.1913,-3.13132c2.68338,0 4.6044,1.63234 4.6044,4.06781c0,5.78714 -12.55169,7.03967 -12.55169,15.79867zm-12.59404,-51.03762l-6.05046,0l0,9.6694l6.05046,0l0,-9.6694zm33.27755,3.38067l0,9.191l-12.10093,0l0,-9.191l-18.15139,0l0,9.18521l-12.09488,0l0,-9.18521l-7.31804,0l0,62.82646l56.97419,0l0,-62.82646l-7.30896,0zm4.28676,59.92419l-50.92373,0l0,-43.24701l50.92373,0l0,43.24701zm-7.31198,-63.30486l-6.05046,0l0,9.6694l6.05046,0l0,-9.6694z" stroke-width="1.5" fill="#4c4c4c"/>
  <path stroke="#999999" id="svg_9" d="m731.8792,397.03129l-4.56842,-3.08811c-1.15263,-0.77838 -2.67141,-0.40375 -3.39769,0.83614l-1.80067,3.08235l8.73959,5.90346l1.8021,-3.08092c0.72351,-1.24136 0.37821,-2.87627 -0.7749,-3.65291l0,0zm-25.3189,27.4605l8.74006,5.9034l14.24485,-24.38829l-8.74422,-5.90493l-14.24069,24.38983l0,0zm-1.33504,7.50049l-0.19304,5.54495l4.56141,-2.59478l4.23885,-2.40703l-8.43181,-5.6988l-0.17541,5.15566l0,0l0,0z" stroke-width="1.5" fill="#4c4c4c"/>
  <path stroke="#999999" id="svg_12" d="m525.42362,517.17077c-3.90771,-2.84733 -9.3479,-1.93367 -12.14913,2.04572l-21.97003,31.22217c-1.99989,2.83968 -1.35841,6.7958 1.43524,8.83179c2.79365,2.0322 6.67665,1.37922 8.67654,-1.46421l15.51257,-22.04275l-2.02217,-1.47584l-15.51022,22.04464l0,0c-1.20135,1.70187 -3.53237,2.09591 -5.20394,0.879c-1.67388,-1.21895 -2.05726,-3.59297 -0.85829,-5.29871l0,0l21.96719,-31.22028l0.00283,-0.00198l-0.00473,-0.0019c1.99753,-2.83381 5.89284,-3.48865 8.67889,-1.45844c2.78606,2.03214 3.43042,5.99799 1.43572,8.83369l0,-0.00188l-24.07998,34.2202l0.00237,0.00389c-2.79598,3.97161 -8.24855,4.88917 -12.15148,2.04571c-3.9029,-2.84931 -4.80107,-8.39332 -2.00745,-12.36883l17.50012,-24.86879l-2.02264,-1.47385l-17.49961,24.86879c-3.59978,5.11522 -2.44303,12.22964 2.58441,15.89218c5.02741,3.66641 12.0172,2.48808 15.61697,-2.62516l24.07943,-34.22221c2.79369,-3.97739 1.89789,-9.51176 -2.01262,-12.36296l0,0.00001z" stroke-width="1.5" fill="#4c4c4c"/>
  <path stroke="#999999" id="svg_13" d="m89.63212,525.87246l-5.54736,-2.94775c-1.39962,-0.743 -3.24385,-0.3854 -4.12577,0.79814l-2.18653,2.94224l10.61235,5.63512l2.18826,-2.94088c0.87855,-1.18493 0.45925,-2.74553 -0.94095,-3.48687l0,0zm-30.74438,26.2123l10.61293,5.63506l17.29732,-23.27973l-10.61798,-5.63653l-17.29227,23.2812l0,0zm-1.62112,7.15956l-0.2344,5.29291l5.53885,-2.47684l5.14717,-2.29762l-10.23863,-5.43976l-0.213,4.92131l0,0l0,0z" stroke-width="1.5" fill="#4c4c4c"/>
  <path stroke="#999999" transform="rotate(30.302135467529297 432.18035888671886,451.7627868652343) " id="svg_14" d="m416.13246,452.85401c1.18047,-1.1041 1.54368,-1.81074 1.54368,-1.81074l0.09081,0c0,0 -0.0454,0.97162 -0.0454,1.94323l0,20.12787l-7.07901,0l0,3.79445l18.42585,0l0,-3.79445l-6.9882,0l0,-27.36713l-3.99164,0l-7.66924,7.23926l2.72037,2.73819l2.99278,-2.87068zm16.6665,21.67362c0,0.75447 0.09081,1.54575 0.22702,2.38119l20.64679,0l0,-3.79445l-15.87953,0c0.08702,-7.10677 15.3801,-8.693 15.3801,-18.93911c0,-5.38436 -4.21487,-8.96535 -10.1172,-8.96535c-7.21522,0 -10.12098,5.91433 -10.12098,5.91433l3.3106,2.16037c0,0 2.27012,-3.97478 6.49256,-3.97478c3.356,0 5.75855,2.07204 5.75855,5.16354c0,7.34599 -15.69792,8.93591 -15.69792,20.05427zm-15.75088,-64.78532l-7.56708,0l0,12.27399l7.56708,0l0,-12.27399zm41.61896,4.2913l0,11.66673l-15.13417,0l0,-11.66673l-22.70125,0l0,11.65937l-15.1266,0l0,-11.65937l-9.15239,0l0,79.74965l71.25545,0l0,-79.74965l-9.14104,0zm5.36128,76.06562l-63.68837,0l0,-54.8962l63.68837,0l0,54.8962zm-9.14482,-80.35691l-7.56708,0l0,12.27399l7.56708,0l0,-12.27399z" stroke-width="1.5" fill="#4c4c4c"/>
  <path stroke="#999999" transform="rotate(30.316944122314453 156.68038940429693,536.2628173828125) " id="svg_18" d="m145.54595,537.09054c0.81904,-0.83753 1.07105,-1.37355 1.07105,-1.37355l0.063,0c0,0 -0.0315,0.73703 -0.0315,1.47406l0,15.26819l-4.91159,0l0,2.87832l12.78431,0l0,-2.87832l-4.84859,0l0,-20.75959l-2.7695,0l-5.32111,5.49141l1.88746,2.07708l2.07647,-2.17758zm11.56363,16.44073c0,0.57231 0.063,1.17254 0.15751,1.80627l14.32526,0l0,-2.87832l-11.01761,0c0.06038,-5.3909 10.6711,-6.59416 10.6711,-14.36644c0,-4.08436 -2.92438,-6.80075 -7.01956,-6.80075c-5.0061,0 -7.02219,4.48637 -7.02219,4.48637l2.29698,1.63877c0,0 1.57507,-3.01511 4.5047,-3.01511c2.32848,0 3.99543,1.57176 3.99543,3.91685c0,5.57237 -10.89161,6.77842 -10.89161,15.21235zm-10.92836,-49.14352l-5.25023,0l0,9.31055l5.25023,0l0,-9.31055zm28.87628,3.2552l0,8.84991l-10.50046,0l0,-8.84991l-15.75069,0l0,8.84433l-10.49522,0l0,-8.84433l-6.35016,0l0,60.49485l49.43881,0l0,-60.49485l-6.34228,0zm3.71979,57.70029l-44.18858,0l0,-41.64203l44.18858,0l0,41.64203zm-6.3449,-60.95549l-5.25023,0l0,9.31055l5.25023,0l0,-9.31055z" stroke-width="1.5" fill="#4c4c4c"/>
  <path stroke="#999999" transform="rotate(30.079090118408203 469.1803588867187,94.76277160644537) " id="svg_19" d="m445.35168,96.39022c1.75281,-1.64665 2.29213,-2.70051 2.29213,-2.70051l0.13483,0c0,0 -0.06742,1.44906 -0.06742,2.89811l0,30.01845l-10.51124,0l0,5.65899l27.35957,0l0,-5.65899l-10.37641,0l0,-40.81499l-5.92698,0l-11.38765,10.79654l4.03933,4.0837l4.44382,-4.2813zm24.74721,32.32377c0,1.12521 0.13483,2.30531 0.33708,3.55127l30.65733,0l0,-5.65899l-23.57867,0c0.12921,-10.59894 22.8371,-12.96463 22.8371,-28.24555c0,-8.03017 -6.25844,-13.37081 -15.02249,-13.37081c-10.71349,0 -15.0281,8.82056 -15.0281,8.82056l4.91574,3.22195c0,0 3.37079,-5.92794 9.64046,-5.92794c4.98314,0 8.55057,3.09021 8.55057,7.70083c0,10.95572 -23.30902,13.3269 -23.30902,29.90868zm-23.38766,-96.62002l-11.23596,0l0,18.30528l11.23596,0l0,-18.30528zm61.7978,6.39999l0,17.39962l-22.47193,0l0,-17.39962l-33.70789,0l0,17.38864l-22.4607,0l0,-17.38864l-13.5899,0l0,118.93763l105.80347,0l0,-118.93763l-13.57305,0zm7.96069,113.44331l-94.5675,0l0,-81.87151l94.5675,0l0,81.87151zm-13.57866,-119.84329l-11.23596,0l0,18.30528l11.23596,0l0,-18.30528z" stroke-width="1.5" fill="#4c4c4c"/>
  <path stroke="#999999" id="svg_20" d="m357.72614,492.33419l-9.13684,-5.12347c-2.30526,-1.2914 -5.34282,-0.66986 -6.79538,1.38723l-3.60134,5.1139l17.47915,9.79438l3.6042,-5.11153c1.44702,-2.05953 0.75642,-4.77201 -1.5498,-6.06051l0,0zm-50.63777,45.55947l17.48011,9.79428l28.48968,-40.46239l-17.48843,-9.79683l-28.48136,40.46494l0,0zm-2.67008,12.44399l-0.38608,9.19958l9.12282,-4.30498l8.4777,-3.9935l-16.86361,-9.45481l-0.35082,8.55371l0,0l0,0z" stroke-width="1.5" fill="#4c4c4c"/>
  <path stroke="#999999" id="svg_21" d="m766.04392,46.99896l-3.91579,-2.17572c-0.98797,-0.5484 -2.28978,-0.28446 -2.91231,0.5891l-1.54343,2.17166l7.49107,4.15926l1.54466,-2.17065c0.62015,-0.87459 0.32418,-2.02647 -0.6642,-2.57364l0,0zm-21.70191,19.34717l7.49148,4.15921l12.20987,-17.18266l-7.49505,-4.1603l-12.20631,17.18374l0,0zm-1.14432,5.28444l-0.16546,3.90667l3.90978,-1.82814l3.6333,-1.69587l-7.22727,-4.01506l-0.15035,3.6324l0,0l0,0z" stroke-width="1.5" fill="#4c4c4c"/>
  <path stroke="#999999" id="svg_24" d="m547.15828,250.92091c-5.26691,-4.13669 -12.59934,-2.80929 -16.37491,2.97208l-29.61177,45.36052c-2.69551,4.12557 -1.8309,9.87314 1.93446,12.8311c3.76536,2.95244 8.99896,2.00378 11.69446,-2.12724l20.90825,-32.02437l-2.72553,-2.14414l-20.90507,32.02712l0,0c-1.61921,2.47253 -4.76102,3.04501 -7.014,1.27703c-2.2561,-1.77093 -2.77283,-5.21997 -1.15683,-7.69813l0,0l29.60794,-45.35777l0.00382,-0.00288l-0.00638,-0.00276c2.69232,-4.11705 7.94252,-5.06842 11.69764,-2.11887c3.75513,2.95235 4.62361,8.71406 1.9351,12.83385l0,-0.00274l-32.45563,49.71614l0.00319,0.00565c-3.76849,5.77008 -11.11761,7.10313 -16.37809,2.97207c-5.26042,-4.13956 -6.47101,-12.19407 -2.70569,-17.96981l23.58711,-36.13013l-2.72616,-2.14125l-23.58643,36.13013c-4.85188,7.43155 -3.29278,17.76759 3.48334,23.08864c6.77607,5.32667 16.19709,3.61475 21.04895,-3.81392l32.45488,-49.71906c3.7654,-5.77848 2.55802,-13.81897 -2.71265,-17.96128l0,0.00001z" stroke-width="1.5" fill="#4c4c4c"/>
  <path id="svg_29" d="m53.1113,373.26963c-0.07597,-0.12704 -0.17022,-0.25156 -0.29039,-0.34708c-0.51418,-0.41653 -1.23979,-0.28948 -1.61675,0.28541c-0.37632,0.57626 -0.25737,1.38169 0.25799,1.79939c0.46827,0.37722 1.09315,0.28678 1.49188,-0.15701l-10.94085,16.76765l-3.40135,13.72566l10.67936,-7.85611l24.32063,-37.27317l-7.28095,-5.87073l-2.34706,3.59742c-0.13427,-0.59843 -0.43407,-1.16029 -0.91997,-1.55581c-1.12734,-0.90874 -2.70341,-0.63384 -3.52032,0.62198c-4.6812,7.17927 -2.08615,9.09111 -6.43224,16.2624l0,0zm-5.35617,22.44208l-5.49339,4.04137l1.74927,-7.06642l3.74412,3.02505l0,0zm6.47113,-22.80743c3.37011,-5.53553 3.0491,-7.03648 5.93333,-11.94983c0.47711,0.364 1.02484,0.49241 1.56256,0.46089l-7.49589,11.48895l0,0z" stroke-width="1.5" stroke="#999999" fill="#4c4c4c"/>
  <path id="svg_30" d="m643.71948,422.33085c-0.12589,-0.20924 -0.28207,-0.41433 -0.48121,-0.57166c-0.85207,-0.68605 -2.0545,-0.4768 -2.67919,0.47008c-0.62362,0.94913 -0.4265,2.27573 0.42753,2.96371c0.77599,0.62131 1.8115,0.47234 2.47225,-0.25861l-18.13053,27.61731l-5.63652,22.60697l17.69722,-12.93948l40.30273,-61.39109l-12.06556,-9.66943l-3.88941,5.92516c-0.2225,-0.98566 -0.71932,-1.91107 -1.52452,-2.56252c-1.86816,-1.49675 -4.47993,-1.04397 -5.83367,1.02443c-7.75741,11.82467 -3.45704,14.97359 -10.65913,26.78513l0,0zm-8.87594,36.96342l-9.10332,6.65638l2.89878,-11.63881l6.20454,4.98243l0,0zm10.72357,-37.56518c5.58475,-9.11734 5.05279,-11.5895 9.83237,-19.68208c0.79064,0.59953 1.69831,0.81102 2.58938,0.75911l-12.42175,18.92297l0,0z" stroke-width="1.5" stroke="#999999" fill="#4c4c4c"/>
  <path id="svg_31" d="m347.63505,28.17158c-0.04992,-0.07473 -0.11186,-0.14797 -0.19083,-0.20416c-0.33789,-0.24502 -0.81472,-0.17028 -1.06244,0.16789c-0.2473,0.33897 -0.16913,0.81276 0.16954,1.05847c0.30772,0.2219 0.71836,0.16869 0.98038,-0.09236l-7.1897,9.86332l-2.23518,8.07392l7.01787,-4.62124l15.98213,-21.92539l-4.78462,-3.45337l-1.54235,2.11613c-0.08823,-0.35202 -0.28525,-0.68253 -0.60455,-0.91518c-0.74082,-0.53455 -1.77653,-0.37285 -2.31335,0.36587c-3.07622,4.2231 -1.3709,5.34771 -4.2269,9.56612l0,0zm-3.51977,13.20122l-3.60994,2.37728l1.14952,-4.15672l2.46042,1.77944l0,0zm4.25245,-13.41614c2.21464,-3.25619 2.0037,-4.13911 3.89905,-7.02931c0.31353,0.21412 0.67347,0.28965 1.02683,0.27111l-4.92587,6.7582l0,0z" stroke-width="1.5" stroke="#999999" fill="#4c4c4c"/>
  <path id="svg_32" d="m381.62779,256.48354c-0.07162,-0.12455 -0.16049,-0.24662 -0.27379,-0.34027c-0.4848,-0.40836 -1.16894,-0.28381 -1.52437,0.27981c-0.35482,0.56496 -0.24267,1.3546 0.24325,1.76411c0.44151,0.36983 1.03068,0.28115 1.40663,-0.15393l-10.31566,16.43888l-3.20699,13.45653l10.06911,-7.70207l22.93089,-36.54233l-6.86489,-5.75562l-2.21294,3.52688c-0.1266,-0.5867 -0.40927,-1.13754 -0.8674,-1.52531c-1.06292,-0.89092 -2.54893,-0.62141 -3.31916,0.60978c-4.4137,7.0385 -1.96694,8.91285 -6.06468,15.94354l0,0zm-5.05011,22.00204l-5.17948,3.96213l1.64931,-6.92787l3.53017,2.96573l0,0zm6.10135,-22.36023c3.17753,-5.42699 2.87487,-6.89851 5.59428,-11.71553c0.44984,0.35687 0.96628,0.48275 1.47327,0.45185l-7.06755,11.26367l0,0z" stroke-width="1.5" stroke="#999999" fill="#4c4c4c"/>
  <path id="svg_33" d="m760.88926,527.12354c-0.06728,-0.12455 -0.15076,-0.24662 -0.2572,-0.34027c-0.45542,-0.40836 -1.0981,-0.28381 -1.43198,0.27981c-0.33332,0.56496 -0.22796,1.3546 0.22851,1.76411c0.41475,0.36983 0.96822,0.28115 1.32138,-0.15393l-9.69048,16.43888l-3.01263,13.45653l9.45888,-7.70207l21.54118,-36.54233l-6.44885,-5.75562l-2.07883,3.52688c-0.11892,-0.5867 -0.38446,-1.13754 -0.81483,-1.52531c-0.9985,-0.89092 -2.39445,-0.62141 -3.118,0.60978c-4.14621,7.0385 -1.84773,8.91285 -5.69714,15.94354l0,0zm-4.74405,22.00204l-4.86558,3.96213l1.54935,-6.92787l3.31623,2.96573l0,0zm5.73158,-22.36023c2.98496,-5.42699 2.70064,-6.89851 5.25525,-11.71553c0.42258,0.35687 0.90772,0.48275 1.38399,0.45185l-6.63923,11.26367l0,0z" stroke-width="1.5" stroke="#999999" fill="#4c4c4c"/>
  <path id="svg_34" d="m38.3415,63.86183c-0.14976,-0.23415 -0.33557,-0.46365 -0.57248,-0.63971c-1.01367,-0.76772 -2.44415,-0.53356 -3.18731,0.52604c-0.74189,1.06212 -0.50739,2.54665 0.50861,3.31653c0.92316,0.69528 2.15507,0.52857 2.94113,-0.28939l-21.5691,30.90508l-6.70553,25.29827l21.0536,-14.47989l47.9464,-68.69956l-14.35387,-10.82055l-4.62706,6.63053c-0.2647,-1.103 -0.85574,-2.13858 -1.81365,-2.86758c-2.22247,-1.67493 -5.32958,-1.16826 -6.94006,1.14639c-9.22865,13.23237 -4.11269,16.75616 -12.6807,29.97384l0,0zm-10.55931,41.36383l-10.82982,7.44881l3.44856,-13.02438l7.38127,5.57558l0,0zm12.75736,-42.03723c6.64393,-10.20274 6.01109,-12.9692 11.69714,-22.02518c0.94058,0.67091 2.02041,0.90757 3.08048,0.84948l-14.77761,21.1757l0,0z" stroke-width="1.5" stroke="#999999" fill="#4c4c4c"/>
  <path id="svg_35" d="m762.63141,124.04647c-0.06077,-0.09715 -0.13617,-0.19237 -0.23231,-0.26541c-0.41135,-0.31852 -0.99183,-0.22137 -1.2934,0.21825c-0.30106,0.44067 -0.2059,1.05659 0.20639,1.37601c0.37461,0.28847 0.87452,0.2193 1.1935,-0.12007l-8.75268,12.82232l-2.72108,10.49609l8.54349,-6.00762l19.45651,-28.50301l-5.82476,-4.48938l-1.87765,2.75097c-0.10741,-0.45763 -0.34726,-0.88728 -0.73597,-1.18974c-0.90187,-0.69492 -2.16273,-0.4847 -2.81626,0.47563c-3.74496,5.49003 -1.66892,6.95202 -5.14579,12.43596l0,0zm-4.28494,17.16159l-4.39471,3.09046l1.39941,-5.40373l2.9953,2.31327l0,0zm5.1769,-17.44098c2.69609,-4.23305 2.43928,-5.38084 4.74666,-9.13811c0.38169,0.27836 0.81988,0.37655 1.25005,0.35245l-5.99671,8.78566l0,0z" stroke-width="1.5" stroke="#999999" fill="#4c4c4c"/>
  <path stroke="#999999" id="svg_36" d="m46.58779,459.54216l-4.07895,-2.38627c-1.02913,-0.60147 -2.38519,-0.31198 -3.03365,0.64611l-1.60774,2.38182l7.8032,4.56176l1.60901,-2.38071c0.646,-0.95923 0.33769,-2.22257 -0.69187,-2.82271l0,0zm-22.60616,21.21948l7.80362,4.56172l12.71861,-18.84549l-7.80734,-4.56291l-12.7149,18.84668l0,0zm-1.192,5.79583l-0.17235,4.28474l4.07269,-2.00506l3.78469,-1.85998l-7.5284,-4.40362l-0.15661,3.98392l0,0l0,0z" stroke-width="1.5" fill="#4c4c4c"/>
  <path id="svg_37" d="m335.06545,388.26922l-4.40527,-2.73719c-1.11146,-0.68992 -2.57601,-0.35786 -3.27635,0.74113l-1.73637,2.73208l8.42746,5.23261l1.73773,-2.73082c0.69768,-1.1003 0.3647,-2.54942 -0.74722,-3.23781l0,0zm-24.41468,24.33998l8.42792,5.23255l13.73612,-21.61687l-8.43193,-5.23392l-13.73211,21.61824l0,0zm-1.28736,6.64815l-0.18614,4.91485l4.39851,-2.29992l4.08747,-2.1335l-8.13069,-5.0512l-0.16914,4.56979l0,0l0,0z" stroke-width="1.5" stroke="#999999" fill="#4c4c4c"/>
  <path id="svg_38" d="m656.63136,253.38835l-3.58948,-2.2459c-0.90564,-0.56609 -2.09897,-0.29363 -2.66962,0.6081l-1.41482,2.24171l6.86683,4.29343l1.41593,-2.24067c0.56848,-0.90281 0.29717,-2.09184 -0.60885,-2.65667l0,0zm-19.89346,19.97129l6.8672,4.29338l11.1924,-17.73695l-6.87047,-4.2945l-11.18913,17.73806l0,0zm-1.04896,5.4549l-0.15167,4.0327l3.58397,-1.88712l3.33053,-1.75057l-6.62501,-4.14458l-0.13782,3.74957l0,0l0,0z" stroke-width="1.5" stroke="#999999" fill="#4c4c4c"/>
  <path transform="rotate(30.195425033569336 565.7806396484377,469.32772827148426) " id="svg_39" d="m557.6728,469.938c0.5964,-0.61747 0.77991,-1.01266 0.77991,-1.01266l0.04588,0c0,0 -0.02294,0.54338 -0.02294,1.08675l0,11.25653l-3.57648,0l0,2.12205l9.30918,0l0,-2.12205l-3.53061,0l0,-15.30509l-2.01667,0l-3.87468,4.04856l1.37439,1.53133l1.51202,-1.60543zm8.42031,12.12099c0,0.42194 0.04588,0.86446 0.11469,1.33168l10.43125,0l0,-2.12205l-8.02271,0c0.04397,-3.97447 7.77039,-4.86157 7.77039,-10.59172c0,-3.01121 -2.12945,-5.01388 -5.11144,-5.01388c-3.6453,0 -5.11336,3.3076 -5.11336,3.3076l1.67259,1.20819c0,0 1.14692,-2.2229 3.28019,-2.2229c1.69553,0 2.90936,1.15879 2.90936,2.88771c0,4.10825 -7.93096,4.99741 -7.93096,11.21536zm-7.95772,-36.23125l-3.82307,0l0,6.86424l3.82307,0l0,-6.86424zm21.02689,2.39991l0,6.52463l-7.64614,0l0,-6.52463l-11.46921,0l0,6.52051l-7.64232,0l0,-6.52051l-4.624,0l0,44.60006l35.99994,0l0,-44.60006l-4.61827,0zm2.70865,42.53976l-32.17687,0l0,-30.70075l32.17687,0l0,30.70075zm-4.62018,-44.93967l-3.82307,0l0,6.86424l3.82307,0l0,-6.86424z" stroke-width="1.5" stroke="#999999" fill="#4c4c4c"/>
  <path transform="rotate(30.45358657836914 246.92050170898426,59.932765960693374) " stroke="#999999" id="svg_40" d="m235.43445,60.78974c0.8449,-0.86709 1.10487,-1.42203 1.10487,-1.42203l0.06499,0c0,0 -0.0325,0.76304 -0.0325,1.52608l0,15.80705l-5.06669,0l0,2.9799l13.18802,0l0,-2.9799l-5.0017,0l0,-21.49227l-2.85695,0l-5.48914,5.68522l1.94706,2.15038l2.14204,-2.25443zm11.9288,17.02098c0,0.59251 0.06499,1.21393 0.16248,1.87002l14.77763,0l0,-2.9799l-11.36553,0c0.06228,-5.58117 11.00807,-6.82689 11.00807,-14.87348c0,-4.22851 -3.01673,-7.04077 -7.24123,-7.04077c-5.16418,0 -7.24393,4.64471 -7.24393,4.64471l2.36951,1.69661c0,0 1.62481,-3.12152 4.64695,-3.12152c2.40201,0 4.1216,1.62724 4.1216,4.05509c0,5.76904 -11.23555,7.01765 -11.23555,15.74924zm-11.27346,-50.87795l-5.41603,0l0,9.63915l5.41603,0l0,-9.63915zm29.78814,3.37009l0,9.16225l-10.83205,0l0,-9.16225l-16.24808,0l0,9.15647l-10.82664,0l0,-9.15647l-6.55068,0l0,62.62991l51.00001,0l0,-62.62991l-6.54256,0zm3.83725,59.73672l-45.58398,0l0,-43.11172l45.58398,0l0,43.11172zm-6.54527,-63.10681l-5.41603,0l0,9.63915l5.41603,0l0,-9.63915z" stroke-width="1.5" fill="#4c4c4c"/>
  <path stroke="#999999" transform="rotate(30.37364959716797 106.68035888671896,440.2627868652343) " id="svg_42" d="m99.90788,440.76382c0.49818,-0.50695 0.65146,-0.83141 0.65146,-0.83141l0.03832,0c0,0 -0.01916,0.44612 -0.01916,0.89224l0,9.24178l-2.98746,0l0,1.74224l7.77601,0l0,-1.74224l-2.94913,0l0,-12.56572l-1.68454,0l-3.23654,3.32393l1.14804,1.25725l1.263,-1.31808zm7.03354,9.95152c0,0.34642 0.03832,0.70973 0.0958,1.09333l8.71328,0l0,-1.74224l-6.70142,0c0.03672,-3.2631 6.49066,-3.99142 6.49066,-8.69596c0,-2.47225 -1.77874,-4.11647 -4.26962,-4.11647c-3.04494,0 -4.27122,2.71559 -4.27122,2.71559l1.39713,0.99194c0,0 0.95803,-1.82504 2.73997,-1.82504c1.41629,0 2.4302,0.95138 2.4302,2.37086c0,3.37294 -6.62478,4.10296 -6.62478,9.20799zm-6.64713,-29.74641l-3.19343,0l0,5.63565l3.19343,0l0,-5.63565zm17.56388,1.97036l0,5.35682l-6.38687,0l0,-5.35682l-9.5803,0l0,5.35344l-6.38367,0l0,-5.35344l-3.86246,0l0,36.61734l30.07097,0l0,-36.61734l-3.85767,0zm2.26255,34.9258l-26.87754,0l0,-25.20579l26.87754,0l0,25.20579zm-3.85926,-36.89617l-3.19343,0l0,5.63565l3.19343,0l0,-5.63565z" stroke-width="1.5" fill="#4c4c4c"/>
  <path stroke="#999999" transform="rotate(30.37364959716797 760.6803588867186,354.7627563476562) " id="svg_43" d="m750.97979,355.438c0.71356,-0.6832 0.93312,-1.12045 0.93312,-1.12045l0.05489,0c0,0 -0.02745,0.60122 -0.02745,1.20243l0,12.45473l-4.27909,0l0,2.34793l11.13798,0l0,-2.34793l-4.2242,0l0,-16.93425l-2.41285,0l-4.63587,4.47951l1.6444,1.69434l1.80906,-1.77632zm10.0745,13.41122c0,0.46685 0.05489,0.95648 0.13723,1.47343l12.48049,0l0,-2.34793l-9.59879,0c0.0526,-4.39753 9.2969,-5.37906 9.2969,-11.71915c0,-3.33174 -2.54779,-5.54758 -6.1156,-5.54758c-4.36142,0 -6.11789,3.65967 -6.11789,3.65967l2.00118,1.3368c0,0 1.37224,-2.45952 3.9246,-2.45952c2.02862,0 3.48091,1.28214 3.48091,3.1951c0,4.54556 -9.48902,5.52937 -9.48902,12.40919zm-9.52103,-40.0879l-4.57412,0l0,7.59491l4.57412,0l0,-7.59491zm25.15766,2.65537l0,7.21915l-9.14824,0l0,-7.21915l-13.72236,0l0,7.21459l-9.14367,0l0,-7.21459l-5.5324,0l0,49.34753l43.07221,0l0,-49.34753l-5.52554,0zm3.24077,47.06792l-38.49809,0l0,-33.9687l38.49809,0l0,33.9687zm-5.52782,-49.7233l-4.57412,0l0,7.59491l4.57412,0l0,-7.59491z" stroke-width="1.5" fill="#4c4c4c"/>
  <path stroke="#999999" transform="rotate(30.37364959716797 33.6803550720215,182.2627716064453) " id="svg_44" d="m26.90788,182.76382c0.49818,-0.50696 0.65146,-0.83141 0.65146,-0.83141l0.03832,0c0,0 -0.01916,0.44612 -0.01916,0.89224l0,9.24178l-2.98746,0l0,1.74224l7.77601,0l0,-1.74224l-2.94913,0l0,-12.56571l-1.68454,0l-3.23654,3.32393l1.14804,1.25725l1.263,-1.31808zm7.03354,9.95152c0,0.34642 0.03832,0.70973 0.0958,1.09333l8.71329,0l0,-1.74224l-6.70143,0c0.03673,-3.26309 6.49066,-3.99142 6.49066,-8.69596c0,-2.47225 -1.77875,-4.11647 -4.26962,-4.11647c-3.04494,0 -4.27122,2.71559 -4.27122,2.71559l1.39713,0.99194c0,0 0.95803,-1.82504 2.73996,-1.82504c1.41629,0 2.43021,0.95139 2.43021,2.37086c0,3.37294 -6.62478,4.10296 -6.62478,9.20799zm-6.64713,-29.74642l-3.19344,0l0,5.63565l3.19344,0l0,-5.63565zm17.56388,1.97037l0,5.35682l-6.38687,0l0,-5.35682l-9.5803,0l0,5.35344l-6.38367,0l0,-5.35344l-3.86246,0l0,36.61734l30.07097,0l0,-36.61734l-3.85767,0zm2.26255,34.9258l-26.87754,0l0,-25.20579l26.87754,0l0,25.20579zm-3.85926,-36.89617l-3.19344,0l0,5.63565l3.19344,0l0,-5.63565z" stroke-width="1.5" fill="#4c4c4c"/>
  <path stroke="#999999" transform="rotate(30.37364959716797 701.6803588867189,25.26277351379409) " id="svg_45" d="m694.90788,25.76382c0.49818,-0.50696 0.65146,-0.83141 0.65146,-0.83141l0.03832,0c0,0 -0.01916,0.44612 -0.01916,0.89224l0,9.24178l-2.98746,0l0,1.74224l7.77601,0l0,-1.74224l-2.94913,0l0,-12.56571l-1.68454,0l-3.23654,3.32393l1.14804,1.25725l1.263,-1.31808zm7.03354,9.95152c0,0.34642 0.03832,0.70973 0.0958,1.09333l8.71329,0l0,-1.74224l-6.70143,0c0.03673,-3.26309 6.49066,-3.99142 6.49066,-8.69596c0,-2.47225 -1.77875,-4.11647 -4.26962,-4.11647c-3.04494,0 -4.27122,2.71559 -4.27122,2.71559l1.39713,0.99194c0,0 0.95803,-1.82504 2.73996,-1.82504c1.41629,0 2.43021,0.95139 2.43021,2.37086c0,3.37294 -6.62478,4.10296 -6.62478,9.20799zm-6.64713,-29.74642l-3.19344,0l0,5.63565l3.19344,0l0,-5.63565zm17.56388,1.97037l0,5.35682l-6.38687,0l0,-5.35682l-9.5803,0l0,5.35344l-6.38367,0l0,-5.35344l-3.86246,0l0,36.61734l30.07097,0l0,-36.61734l-3.85767,0zm2.26255,34.9258l-26.87754,0l0,-25.20579l26.87754,0l0,25.20579zm-3.85926,-36.89617l-3.19344,0l0,5.63565l3.19344,0l0,-5.63565z" stroke-width="1.5" fill="#4c4c4c"/>
  <path stroke="#999999" id="svg_46" d="m751.72614,209.33419l-9.13683,-5.12347c-2.30526,-1.2914 -5.34282,-0.66986 -6.79538,1.38723l-3.60133,5.1139l17.47915,9.79438l3.60419,-5.11153c1.44702,-2.05953 0.75642,-4.77201 -1.5498,-6.06051l0,0zm-50.63777,45.55947l17.48011,9.79428l28.48969,-40.46239l-17.48843,-9.79684l-28.48137,40.46495l0,0zm-2.67008,12.44399l-0.38608,9.19958l9.12282,-4.30498l8.47769,-3.99349l-16.86361,-9.45482l-0.35082,8.55371l0,0l0,0z" stroke-width="1.5" fill="#4c4c4c"/>
  <path stroke="#999999" id="svg_47" d="m357.72614,492.33419l-9.13683,-5.12347c-2.30526,-1.2914 -5.34282,-0.66986 -6.79538,1.38723l-3.60133,5.1139l17.47915,9.79438l3.60419,-5.11153c1.44702,-2.05953 0.75642,-4.77201 -1.5498,-6.06051l0,0zm-50.63777,45.55947l17.48011,9.79428l28.48969,-40.46239l-17.48843,-9.79684l-28.48137,40.46495l0,0zm-2.67008,12.44399l-0.38608,9.19958l9.12282,-4.30498l8.47769,-3.99349l-16.86361,-9.45482l-0.35082,8.55371l0,0l0,0z" stroke-width="1.5" fill="#4c4c4c"/>
  <path transform="rotate(8.710619926452637 135.45790100097665,68.86397552490229) " id="svg_48" d="m138.48352,38.86397l-24.52562,51.47639l15.90482,-9.73457l2.56956,18.25818l24.52562,-51.47852l-18.47438,-8.52148zm3.75901,15.76165c-1.21761,-0.56284 -1.74409,-1.98913 -1.17212,-3.18729c0.57414,-1.19817 2.02358,-1.71623 3.2412,-1.1534s1.74409,1.99126 1.17212,3.18943s-2.02141,1.7141 -3.2412,1.15126z" stroke-width="1.5" stroke="#999999" fill="#4c4c4c"/>
  <path stroke="#999999" id="svg_49" d="m37.92807,292.86397l-15.97017,35.17553l10.35663,-6.65196l1.6732,12.47642l15.97017,-35.17699l-12.02983,-5.82301zm2.44773,10.77046c-0.79287,-0.38461 -1.13569,-1.35924 -0.76324,-2.17798c0.37386,-0.81875 1.31768,-1.17276 2.11054,-0.78816s1.13569,1.36069 0.76324,2.17944s-1.31627,1.1713 -2.11054,0.78669z" stroke-width="1.5" fill="#4c4c4c"/>
  <path transform="rotate(5.118723392486572 598.4578857421874,366.863952636718) " stroke="#999999" id="svg_51" d="m602.75006,328.86397l-34.79216,65.20343l22.56265,-12.33046l3.64519,23.12703l34.79216,-65.20612l-26.20784,-10.79387zm5.33255,19.96476c-1.72732,-0.71293 -2.47419,-2.51956 -1.66277,-4.03723c0.81448,-1.51768 2.87066,-2.1739 4.59797,-1.46097s2.47419,2.52226 1.66277,4.03994s-2.86758,2.17119 -4.59797,1.45826z" stroke-width="1.5" fill="#4c4c4c"/>
  <path stroke="#999999" id="svg_52" d="m179.0688,421.86398l-17.1109,33.45965l11.09639,-6.32747l1.79272,11.86782l17.1109,-33.46104l-12.8891,-5.53896zm2.62257,10.24507c-0.8495,-0.36585 -1.21681,-1.29293 -0.81776,-2.07174c0.40056,-0.77881 1.4118,-1.11556 2.2613,-0.74971s1.21681,1.29432 0.81776,2.07313s-1.41029,1.11416 -2.2613,0.74832z" stroke-width="1.5" fill="#4c4c4c"/>
  <path transform="rotate(7.8763275146484375 612.4578857421875,43.86396789550776) " stroke="#999999" id="svg_53" d="m615.48352,13.86397l-24.52562,51.47639l15.90482,-9.73457l2.56956,18.25818l24.52562,-51.47852l-18.47438,-8.52148zm3.75901,15.76165c-1.21762,-0.56284 -1.7441,-1.98913 -1.17212,-3.18729c0.57414,-1.19817 2.02358,-1.71624 3.24119,-1.1534s1.7441,1.99126 1.17212,3.18943s-2.02141,1.7141 -3.24119,1.15126z" stroke-width="1.5" fill="#4c4c4c"/>
  <path transform="rotate(6.406031608581543 325.4579162597654,259.8639526367187) " stroke="#999999" id="svg_55" d="m331.01661,206.86398l-45.0587,90.94161l29.22048,-17.19774l4.72082,32.25611l45.0587,-90.94537l-33.9413,-15.05461zm6.90609,27.84558c-2.23702,-0.99435 -3.20428,-3.51413 -2.15343,-5.63088c1.05482,-2.11677 3.71774,-3.03202 5.95474,-2.03767s3.20428,3.51789 2.15343,5.63466s-3.71375,3.02824 -5.95474,2.03389z" stroke-width="1.5" fill="#4c4c4c"/>
  <path stroke="#999999" transform="rotate(8.710619926452637 669.9578857421886,550.863952636719) " id="svg_56" d="m672.4428,525.49933l-20.14258,43.52267l13.06243,-8.23046l2.11035,15.43707l20.14258,-43.52447l-15.17278,-7.20481zm3.08723,13.32629c-1.00002,-0.47587 -1.43241,-1.68179 -0.96265,-2.69482c0.47153,-1.01304 1.66194,-1.45106 2.66195,-0.97519s1.43241,1.68359 0.96265,2.69662s-1.66016,1.44925 -2.66195,0.97338z" stroke-width="1.5" fill="#4c4c4c"/>
  <path stroke="#999999" transform="rotate(8.710619926452637 235.45788574218722,558.3639526367189) " id="svg_57" d="m236.89895,540.71163l-11.68116,30.28929l7.57521,-5.72793l1.22384,10.74332l11.68116,-30.29054l-8.79905,-5.01413zm1.79036,9.27433c-0.57993,-0.33118 -0.83069,-1.17043 -0.55826,-1.87544c0.27345,-0.70502 0.9638,-1.00985 1.54373,-0.67867s0.83069,1.17168 0.55826,1.8767s-0.96276,1.0086 -1.54373,0.67741z" stroke-width="1.5" fill="#4c4c4c"/>
  <path stroke="#999999" transform="rotate(8.710619926452637 536.9578857421874,208.8639678955083) " id="svg_58" d="m538.26488,194.89843l-10.59445,23.96319l6.87048,-4.53162l1.10999,8.49951l10.59445,-23.96418l-7.98047,-3.9669zm1.6238,7.33733c-0.52598,-0.26201 -0.75341,-0.92598 -0.50633,-1.48374c0.24801,-0.55777 0.87414,-0.79894 1.40011,-0.53693s0.75341,0.92697 0.50633,1.48474s-0.8732,0.79794 -1.40011,0.53593z" stroke-width="1.5" fill="#4c4c4c"/>
  <path stroke="#999999" transform="rotate(8.710619926452637 420.95788574218716,554.364013671875) " id="svg_59" d="m422.51112,538.61283l-12.59046,27.02704l8.16489,-5.11101l1.31911,9.58623l12.59046,-27.02815l-9.484,-4.4741zm1.92972,8.27546c-0.62508,-0.29551 -0.89535,-1.04437 -0.60172,-1.67345c0.29474,-0.62908 1.03882,-0.90109 1.6639,-0.60558s0.89535,1.04549 0.60172,1.67457s-1.03771,0.89997 -1.6639,0.60445z" stroke-width="1.5" fill="#4c4c4c"/>
 </g>
</svg>