<svg width="320" height="500" xmlns="http://www.w3.org/2000/svg">
 <!-- Created with Method Draw - http://github.com/duopixel/Method-Draw/ -->
 <g>
  <title>background</title>
  <rect fill="none" id="canvas_background" height="502" width="322" y="-1" x="-1"/>
  <g display="none" overflow="visible" y="0" x="0" height="100%" width="100%" id="canvasGrid">
   <rect fill="url(#gridpattern)" stroke-width="0" y="0" x="0" height="100%" width="100%"/>
  </g>
 </g>
 <g>
  <title>Layer 1</title>
  <rect stroke="#000" rx="1" id="svg_1" height="443.000049" width="301.703696" y="25.045965" x="9.893942" stroke-width="2.5" fill="none"/>
  <ellipse ry="6" rx="6.5" id="svg_2" cy="46.287328" cx="33.393942" stroke-width="1.5" stroke="#000" fill="#fff"/>
  <ellipse id="svg_3" cy="73.62961" cx="85.907364" stroke-width="1.5" stroke="#000" fill="#fff"/>
  <rect rx="2" id="svg_11" height="35.57047" width="5.369128" y="10.669876" x="30.561727" stroke-width="2" stroke="#000" fill="#fff"/>
  <ellipse ry="6" rx="6.5" id="svg_12" cy="46.287328" cx="66.279848" stroke-width="1.5" stroke="#000" fill="#fff"/>
  <rect rx="2" id="svg_13" height="35.57047" width="5.369128" y="10.669876" x="63.447633" stroke-width="2" stroke="#000" fill="#fff"/>
  <ellipse ry="6" rx="6.5" id="svg_14" cy="46.287328" cx="97.823472" stroke-width="1.5" stroke="#000" fill="#fff"/>
  <rect stroke="#000" rx="2" id="svg_15" height="35.57047" width="5.369128" y="10.669876" x="94.991257" stroke-width="2" fill="#fff"/>
  <ellipse ry="6" rx="6.5" id="svg_22" cy="46.287328" cx="128.024818" stroke-width="1.5" stroke="#000" fill="#fff"/>
  <rect rx="2" id="svg_23" height="35.57047" width="5.369128" y="10.669876" x="125.192604" stroke-width="2" stroke="#000" fill="#fff"/>
  <ellipse ry="6" rx="6.5" id="svg_24" cy="46.287328" cx="159.568443" stroke-width="1.5" stroke="#000" fill="#fff"/>
  <rect rx="2" id="svg_25" height="35.57047" width="5.369128" y="10.669878" x="156.736228" stroke-width="2" stroke="#000" fill="#fff"/>
  <ellipse ry="6" rx="6.5" id="svg_26" cy="46.287328" cx="191.112067" stroke-width="1.5" stroke="#000" fill="#fff"/>
  <rect stroke="#000" rx="2" id="svg_27" height="35.57047" width="5.369128" y="10.669878" x="188.279852" stroke-width="2" fill="#fff"/>
  <ellipse ry="6" rx="6.5" id="svg_28" cy="46.287328" cx="221.313408" stroke-width="1.5" stroke="#000" fill="#fff"/>
  <rect rx="2" id="svg_29" height="35.57047" width="5.369128" y="10.669878" x="218.481193" stroke-width="2" stroke="#000" fill="#fff"/>
  <ellipse ry="6" rx="6.5" id="svg_30" cy="46.287328" cx="252.857032" stroke-width="1.5" stroke="#000" fill="#fff"/>
  <rect rx="2" id="svg_31" height="35.57047" width="5.369128" y="10.66988" x="250.024817" stroke-width="2" stroke="#000" fill="#fff"/>
  <ellipse ry="6" rx="6.5" id="svg_32" cy="46.287328" cx="284.400656" stroke-width="1.5" stroke="#000" fill="#fff"/>
  <rect stroke="#000" rx="2" id="svg_33" height="35.57047" width="5.369128" y="10.66988" x="281.568441" stroke-width="2" fill="#fff"/>
 </g>
</svg>